<?xml version="1.0" ?><!DOCTYPE svg  PUBLIC '-//W3C//DTD SVG 1.1//EN'  'http://www.w3.org/Graphics/SVG/1.1/DTD/svg11.dtd'><svg style="enable-background:new 0 0 35.999 36.005;" version="1.1" viewBox="0 0 35.999 36.005" xml:space="preserve" xmlns="http://www.w3.org/2000/svg" xmlns:xlink="http://www.w3.org/1999/xlink"><g id="Close_Doc"><g id="Layer_17"><g id="ClipView_14"><path d="M0,0v36.005h35.999V0H0z" marker-end="none" marker-start="none" style="fill:none;"/><g><defs><rect height="36.005" id="SVGID_1_" width="35.999"/></defs><clipPath id="SVGID_2_"><use style="overflow:visible;" xlink:href="#SVGID_1_"/></clipPath><g style="clip-path:url(#SVGID_2_);"><g id="Group_35"><path d="M2.296,31.504l-0.045-21        c-0.001-0.163,0.052-0.321,0.15-0.452l2.25-3c0.141-0.188,0.363-0.3,0.6-0.3h7.5c0.236,0,0.458,0.112,0.6,0.3l2.025,2.7        h16.125c0.413,0,0.75,0.337,0.749,0.751l-0.001,21c0,0.413-0.336,0.749-0.749,0.749H3.046        C2.632,32.252,2.296,31.917,2.296,31.504z" marker-end="none" marker-start="none" style="fill:#B2841E;"/><g id="Group_36"><linearGradient gradientTransform="matrix(6.123234e-017 1 -1 6.123234e-017 204.251 157.883)" gradientUnits="userSpaceOnUse" id="SVGID_3_" x1="-148.704" x2="-142.936" y1="187" y2="187"><stop offset="0" style="stop-color:#F1E994"/><stop offset="1" style="stop-color:#FEDF17"/></linearGradient><path d="M3.001,10.502l0.045,21H31.5l0.001-21h-16.5         l-2.25-3h-7.5L3.001,10.502z" marker-end="none" marker-start="none" style="fill:url(#SVGID_3_);"/><a><path d="M4.688,8.252l0.563-0.75h7.5l0.562,0.75H4.688z" marker-end="none" marker-start="none" style="fill:#FFFDEA;"/></a></g></g><g id="Group_37"><path d="M2.272,32.252v-18c0-0.413,0.336-0.75,0.75-0.75h28.455        c0.413,0,0.75,0.337,0.75,0.75v18c0,0.414-0.337,0.75-0.75,0.75H3.022C2.608,33.002,2.272,32.666,2.272,32.252z" marker-end="none" marker-start="none" style="fill:#B2841E;"/><linearGradient gradientTransform="matrix(6.123234e-017 1 -1 6.123234e-017 204.251 156.207)" gradientUnits="userSpaceOnUse" id="SVGID_4_" x1="-148.704" x2="-125.081" y1="187.0015" y2="187.0015"><stop offset="0" style="stop-color:#F1E994"/><stop offset="1" style="stop-color:#FEDF17"/></linearGradient><path d="M3.022,14.252v18h28.455v-18H3.022z" marker-end="none" marker-start="none" style="fill:url(#SVGID_4_);"/></g><path d="M2.999,30.752v0.751h28.453v-0.751       H2.999z" marker-end="none" marker-start="none" style="fill:#D9A025;fill-opacity:0.4078;"/><path d="M3.026,31.501v0.749h28.451v-0.749       H3.026z" marker-end="none" marker-start="none" style="fill:#FFFDEA;fill-opacity:0.4078;"/><path d="M3.049,29.252v0.749H31.5v-0.749       H3.049z" marker-end="none" marker-start="none" style="fill:#D9A025;fill-opacity:0.4078;"/><path d="M2.999,30.002v0.749h28.453v-0.749       H2.999z" marker-end="none" marker-start="none" style="fill:#FFFDEA;fill-opacity:0.4078;"/><defs><filter filterUnits="userSpaceOnUse" height="17.993" id="Adobe_OpacityMaskFilter" width="0.725" x="3.025" y="14.252"><feColorMatrix type="matrix" values="1 0 0 0 0  0 1 0 0 0  0 0 1 0 0  0 0 0 1 0"/></filter></defs><mask height="17.993" id="TranspMask_16_1_" maskUnits="userSpaceOnUse" width="0.725" x="3.025" y="14.252"><linearGradient gradientTransform="matrix(0.0803 0.9968 -0.9878 0.1915 189.1906 153.7719)" gradientUnits="userSpaceOnUse" id="SVGID_5_" x1="-344.6833" x2="-326.6263" y1="158.434" y2="158.434"><stop offset="0" style="stop-color:#FFFFFF"/><stop offset="1" style="stop-color:#000000"/></linearGradient><rect height="784.45" style="fill:url(#SVGID_5_);filter:url(#Adobe_OpacityMaskFilter);" width="576.899" x="-269.075" y="-373.37"/></mask><path d="M3.025,14.252v17.993H3.75       V14.252H3.025z" marker-end="none" marker-start="none" style="mask:url(#TranspMask_16_1_);fill:#FFFDEA;"/><path d="M3.001,14.252v0.749h28.465v-0.749       H3.001z" marker-end="none" marker-start="none" style="fill:#FFFDEA;fill-opacity:0.8549;"/><path d="M3.001,12.752v0.751h28.447v-0.751       H3.001z" marker-end="none" marker-start="none" style="fill:#D9A025;fill-opacity:0.2078;"/><path d="M3,28.502v0.749h28.453v-0.749H3z" marker-end="none" marker-start="none" style="fill:#FFFDEA;fill-opacity:0.4078;"/><path d="M3,27.752v0.749h28.451v-0.749H3z" marker-end="none" marker-start="none" style="fill:#D9A025;fill-opacity:0.4078;"/><g id="Group_38"><path d="M27.119,23.037l0.815-0.639l0.778-0.896        c1.645-2.268,1.837-5.407,0.245-7.91c-0.367-0.576-0.804-1.081-1.287-1.507l-0.348-0.279l-2.781,2.897        c-0.467,0.486-1.291,0.154-1.291-0.52V4.502c0-0.413,0.336-0.75,0.75-0.75h9.61c0.667,0,1.002,0.813,0.527,1.283L31.73,7.42        l0.572,0.802c3.339,5.245,1.789,12.215-3.457,15.549l-0.032,0.018l-0.861,0.49C27.152,24.735,26.394,23.605,27.119,23.037z" marker-end="none" marker-start="none" style="fill:#208712;"/><linearGradient gradientTransform="matrix(1 0 0 1 175.195 107.4)" gradientUnits="userSpaceOnUse" id="SVGID_6_" x1="-151.0222" x2="-143.8482" y1="-100.8286" y2="-92.4596"><stop offset="0" style="stop-color:#84DF77"/><stop offset="1" style="stop-color:#3EBD29"/></linearGradient><path d="M27.582,23.627l0.861-0.49        c4.896-3.111,6.343-9.617,3.226-14.513c-0.192-0.303-0.4-0.597-0.621-0.874l-0.331-0.381l2.893-2.867H24v9.681l3.229-3.364        l0.375,0.252c0.767,0.558,1.446,1.269,1.986,2.118c2.015,3.166,1.449,7.251-1.149,9.765L27.582,23.627z" marker-end="none" marker-start="none" style="fill:url(#SVGID_6_);"/></g></g></g></g></g></g><g id="Layer_1"/></svg>